<?xml version="1.0" encoding="utf-8"?>
<svg xmlns="http://www.w3.org/2000/svg" height="32" width="32" viewBox="0 0 32 32">
  <g>
    <path id="path1" transform="rotate(0,16,16) translate(0,0.940986520933974) scale(1.00000089407047,1.00000089407047)  " fill="#F37327" d="M16.313083,16.309974C16.613073,16.309974,16.913064,16.410011,17.213054,16.610023L23.21714,21.613008C23.91716,22.113006 24.117113,23.113981 23.617107,23.813993 23.517131,24.014982 23.317117,24.115018 23.117103,24.214994L17.213054,29.217977C16.513036,29.717977 15.512049,29.517965 15.012044,28.816976 14.511033,28.116966 14.712054,27.115991 15.412073,26.615991L19.915107,22.813995 15.412073,19.111972C14.712054,18.610998 14.511033,17.610998 15.012044,17.009987 15.312035,16.610023 15.81204,16.309974 16.313083,16.309974z M24.417163,16.110025C24.718131,16.110025,25.018121,16.209999,25.318174,16.410011L31.222221,21.412996C31.422235,21.512972 31.522212,21.712982 31.722227,21.813018 32.222232,22.514007 32.022216,23.514005 31.322198,24.014982L25.318174,29.017965C24.618154,29.517965 23.617107,29.318014 23.117103,28.616966 22.616121,27.917015 22.817111,26.915979 23.517131,26.415979L28.020164,22.714019 23.517131,18.910986C22.817111,18.410986 22.616121,17.410987 23.117103,16.709999 23.417154,16.309974 23.91716,16.110025 24.417163,16.110025z M5.4059653,0L24.317127,0C27.319169,-1.8410719E-07,29.821207,2.5020105,29.821207,5.5030442L29.821207,9.1060053 29.821207,9.2060419 29.821207,10.306016C29.821207,11.60704 28.820159,12.608015 27.519184,12.608015 26.219182,12.608015 25.218135,11.60704 25.218135,10.306016L25.218135,9.3060175 25.218135,9.2060419 25.218135,7.0040184C25.218135,5.7029949,24.117113,4.6030208,22.817111,4.6030208L6.9069867,4.6030208C5.6059489,4.7029964,4.5049557,5.7029949,4.5049557,7.0040184L4.5049557,23.113981C4.5049557,24.415006,5.6059489,25.51498,6.9069867,25.51498L9.4079871,25.51498C10.708994,25.51498 11.710011,26.516016 11.710011,27.816978 11.710011,29.118002 10.708994,30.118 9.4079871,30.118L8.4079775,30.118 5.5059723,30.118C2.4039227,30.118,0.0028987802,27.616966,0.0028989795,24.615017L0.0028989795,5.5030442C-0.097108276,2.5020105,2.4039227,-1.8410719E-07,5.4059653,0z" />
  </g>
</svg>

