<?xml version="1.0" encoding="utf-8"?>
<svg xmlns="http://www.w3.org/2000/svg" height="32" width="32" viewBox="0 0 32 32">
  <g>
    <path id="path1" transform="rotate(0,16,16) translate(0,0.199999809265137) scale(1,1)  " fill="#FFFFFF" d="M19.799988,5.1000049L22.899994,5.1000049 22.899994,15.600003 24.299988,15.600003 24.299988,19.800014 22.899994,19.800014 22.899994,25.999995 19.700012,25.999995 19.700012,19.800014 18.200012,19.800014 18.200012,15.600003 19.799988,15.600003z M9.3999939,5.1000049L9.5,5.1000049 12.600006,5.1000049 12.600006,18.100003 14.100006,18.100003 14.100006,22.300014 12.600006,22.300014 12.600006,25.999995 9.5,25.999995 9.5,22.300014 7.8999939,22.300014 7.8999939,18.100003 9.3999939,18.100003z M1.7999878,1.8000178L1.7999878,29.900018 30.200012,29.900018 30.200012,1.8000178z M0,0L32,0 32,31.6 0,31.6z" />
  </g>
</svg>

