<?xml version="1.0" encoding="utf-8"?>
<svg xmlns="http://www.w3.org/2000/svg" height="32" width="32" viewBox="0 0 32 32">
  <g>
    <path id="path1" transform="rotate(0,16,16) translate(0,0.00351810518230877) scale(1.00000017881397,1.00000017881397)  " fill="#656565" d="M24.999995,20.122C24.517994,20.122 24.124995,20.515002 24.124995,20.997 24.124995,21.479001 24.517994,21.872 24.999995,21.872 25.481995,21.872 25.874995,21.479001 25.874995,20.997 25.874995,20.515002 25.481995,20.122 24.999995,20.122z M24.999995,18.122001C26.584994,18.122001 27.874995,19.412001 27.874995,20.997 27.874995,22.582001 26.584994,23.872 24.999995,23.872 23.414995,23.872 22.124995,22.582001 22.124995,20.997 22.124995,19.412001 23.414995,18.122001 24.999995,18.122001z M24.999995,15.997001C22.242995,15.997001 19.999995,18.240001 19.999995,20.997 19.999995,23.754002 22.242995,25.997 24.999995,25.997 27.756995,25.997 29.999995,23.754002 29.999995,20.997 29.999995,18.240001 27.756995,15.997001 24.999995,15.997001z M2,10.311676L2,22.733971 12.937022,29.10007 12.937022,16.578838z M26,10.239951L14.937022,16.573602 14.937022,29.103648 20.191244,26.07643 20.052869,25.9445C18.785244,24.677001 17.999995,22.927001 17.999995,20.997 17.999995,17.137002 21.140995,13.997001 24.999995,13.997001 25.241183,13.997001 25.479565,14.009266 25.714552,14.033207L26,14.069591z M7.9449579,5.7664309L3.0368767,8.600306 13.932003,14.843975 18.893996,12.003162z M13.933,2.3089973L9.9526265,4.6072232 20.909513,10.849249 24.84548,8.5958505z M13.931,0L28,8.1049895 28,14.67393 28.031735,14.6883C30.377348,15.820204 31.999995,18.222626 31.999995,20.997 31.999995,24.857001 28.858994,27.997 24.999995,27.997 24.035244,27.997 23.115369,27.800751 22.278229,27.446063L22.021636,27.329875 13.929,31.992959 0,23.882969 0,8.0439897z" />
  </g>
</svg>

