<?xml version="1.0" encoding="utf-8"?>
<svg xmlns="http://www.w3.org/2000/svg" height="32" width="32" viewBox="0 0 32 32">
  <g>
    <path id="path1" transform="rotate(0,16,16) translate(4.04999923706055,0) scale(1,1)  " fill="#FFFFFF" d="M2.8999677,15.899994L11.399981,16.600006 11.399981,28.5 12.399983,28.5 12.399983,16.600006 20.899995,15.899994 18.500028,26 19.100005,27.299988C20.700044,24.699982,22.300023,24.699982,23.900001,27.199982L23.900001,32C22.300023,29.5 20.700044,29.5 19.100005,32 17.500028,29.5 15.899988,29.5 14.30001,32 12.700031,29.600006 11.200029,29.600006 9.59999,32 8.0000125,29.5 6.399973,29.5 4.799995,32 3.2000171,29.5 1.599978,29.5 0,32L0,27.299988C1.599978,24.699982,3.2000171,24.699982,4.799995,27.299988L5.3999716,26z M5.299996,5.2999878L5.299996,9.5 18.399991,9.5 18.399991,5.2999878z M9.3999778,0L9.5000144,0 14.200034,0 14.200034,4.7999878 19.50003,4.7999878 19.50003,10.199982 21.899997,10.199982 21.899997,15.399994 1.7000145,15.399994 1.7000145,10.199982 4.0999819,10.199982 4.0999819,4.7999878 9.3999778,4.7999878z" />
  </g>
</svg>

