<?xml version="1.0" encoding="utf-8"?>
<svg xmlns="http://www.w3.org/2000/svg" height="32" width="32" viewBox="0 0 32 32">
  <g>
    <path id="path1" transform="rotate(0,16,16) translate(0,2.75) scale(1,1)  " fill="#F37327" d="M18.100006,22.199997C18.5,22.199997,21,23.100006,21,23.100006L21.100006,26.5 18.100006,25.399994z M27.800003,20.600006L27.800003,24.199997 22.400009,26.199997 22.400009,22.399994z M3.9000092,20.5L5.6999969,24 0.1000061,26.5 0.1000061,25.5z M10.800003,20.199997L17.100006,21.899994 17.100006,25C17.100006,24.800003,10.800003,22.699997,10.800003,22.699997z M31.900009,18.800003L31.900009,22.5 28.699997,23.899994 28.699997,20.199997z M18.300003,14.699997C19,14.699997,21,15.100006,21,15.100006L21,21.899994 18.199997,21z M9.6000061,14.100006L9.6999969,22.699997 6.9000092,23.600006 4.8000031,19.600006z M11,13.300003C14.300003,13.600006,17.100006,14.399994,17.100006,14.399994L17.100006,20.600006 11,19.100006z M27.800003,11.899994L27.800003,19.5 22.5,21.399994 22.5,14.5C22.5,14.399994,27.100006,12.100006,27.800003,11.899994z M9.6999969,10.600006L9.6999969,12.399994C9.6999969,12.399994,5.1000061,17.199997,4.1000061,18.600006L0.1000061,23.199997 0.1000061,19.5C0.1000061,19.699997,8.1000061,10.899994,9.6999969,10.600006z M10.900009,10.5C11.199997,10.699997,21.100006,12.399994,21.100006,12.399994L21.100006,14C20.5,13.800003,10.900009,12.199997,10.900009,12.199997z M31.900009,9.6999969L31.900009,17.5 28.699997,18.699997 28.699997,11.300003z M32,4.6000061L32,8.3999939 22.300003,13.300003 22.300003,11.899994C22.300003,11.899994,29.100006,7.6999969,32,4.6000061z M9.6999969,0.3999939L9.6999969,8.1000061C5,10.5,0,16.199997,0,16.199997L0,4z M10.900009,0.19999695L21.199997,4 21.199997,9.8000031 10.900009,8.1000061z M31.900009,0L31.900009,1.6000061C31.900009,1.6000061,25.699997,7.6999969,22.300003,9.1000061L22.300003,3.6999969z" />
  </g>
</svg>

