<?xml version="1.0" encoding="utf-8"?>
<svg xmlns="http://www.w3.org/2000/svg" height="32" width="32" viewBox="0 0 32 32">
  <g>
    <path id="path1" transform="rotate(0,16,16) translate(0,1.00155568011593) scale(0.999999284744774,0.999999284744774)  " fill="#F37327" d="M26.721025,21.394925C24.912033,21.394925 23.441023,22.874915 23.441023,24.695972 23.441023,26.51593 24.912033,27.996898 26.721025,27.996898 28.52904,27.996898 30.00002,26.51593 30.00002,24.695972 30.00002,22.874915 28.52904,21.394925 26.721025,21.394925z M5.2789936,13.857946C3.4709969,13.857946 1.9999981,15.337939 1.9999981,17.15893 1.9999981,18.978922 3.4709969,20.459915 5.2789936,20.459915 7.0869913,20.459915 8.5579891,18.978922 8.5579891,17.15893 8.5579891,15.337939 7.0869913,13.857946 5.2789936,13.857946z M17.626991,3.6549873C12.503213,3.6549873,7.9641342,7.0212297,6.3836336,11.822505L6.3383656,11.965263 6.3415995,11.965845C8.7449894,12.460968 10.557986,14.601318 10.557986,17.15893 10.557986,19.168483 9.4387379,20.92044 7.7932758,21.819168L7.6154099,21.91077 7.6774092,22.011415C9.846446,25.399993 13.555222,27.458991 17.627009,27.458991 18.982261,27.458991 20.297013,27.23455 21.551436,26.789889L21.828979,26.687033 21.761977,26.516757C21.554381,25.9487 21.441021,25.335377 21.441021,24.695972 21.441021,21.772857 23.810011,19.394911 26.721025,19.394911 27.357809,19.394911 27.968608,19.508699 28.53432,19.717091L28.697455,19.781797 28.798281,19.506828C29.240686,18.245333 29.463999,16.921964 29.463999,15.55697 29.463999,13.691478 29.034238,11.869556 28.211725,10.221544L28.092298,9.9926243 27.925705,10.078421C27.233491,10.413847 26.457723,10.60195 25.639003,10.60195 22.727999,10.60195 20.359995,8.2239609 20.359995,5.3009748 20.359995,4.9356012 20.396995,4.5787439 20.467431,4.2339821L20.518644,4.0117073 20.314066,3.9618273C19.438423,3.7580261,18.538615,3.6549873,17.626991,3.6549873z M25.639003,1.9999905C23.831001,1.9999905 22.359998,3.4799833 22.359998,5.3009748 22.359998,7.120966 23.831001,8.6019592 25.639003,8.6019592 27.447006,8.6019592 28.918008,7.120966 28.918008,5.3009748 28.918008,3.4799833 27.447006,1.9999905 25.639003,1.9999905z M25.639003,0C28.550008,0 30.918012,2.3779888 30.918012,5.3009748 30.918012,6.5797815 30.464761,7.7542715 29.711085,8.6709509L29.672568,8.7155886 29.770341,8.8874903C30.881357,10.925178 31.463998,13.211981 31.463998,15.55697 31.463998,17.414587 31.108748,19.208657 30.406287,20.898316L30.404135,20.903296 30.452153,20.949273C31.408026,21.909149 32.000022,23.234414 32.000022,24.695972 32.000022,27.618965 29.632038,29.996911 26.721025,29.996911 25.265518,29.996911 23.945517,29.402425 22.989393,28.442564L22.944695,28.395504 22.583408,28.541099C21.006506,29.150719 19.343824,29.459016 17.627009,29.459016 12.702314,29.459016 8.2320156,26.884667 5.7396431,22.678609L5.6086226,22.448523 5.5502529,22.452994C5.4604006,22.457583 5.3699627,22.459905 5.2789936,22.459905 2.3679981,22.459905 0,20.081917 0,17.15893 0,14.601318 1.8129978,12.460968 4.2163887,11.965845L4.2580299,11.958357 4.3077049,11.774117C5.9724855,5.8592634 11.434542,1.6550026 17.626991,1.6550026 18.886364,1.6550026 20.126594,1.8233414 21.325151,2.1568012L21.38063,2.1728668 21.410073,2.131319C22.373614,0.83833313,23.910594,0,25.639003,0z" />
  </g>
</svg>

