<?xml version="1.0" encoding="utf-8"?>
<svg xmlns="http://www.w3.org/2000/svg" height="16" width="16" viewBox="0 0 16 16">
  <g>
    <path id="path1" transform="rotate(0,8,8) translate(0.662249565124512,0) scale(0.5,0.5)  " fill="#656565" d="M20.972003,20.575012C21.464,20.575012 21.863002,20.973999 21.863002,21.466003 21.863002,21.958008 21.464,22.356995 20.972003,22.356995 20.480006,22.356995 20.081004,21.958008 20.081004,21.466003 20.081004,20.973999 20.480006,20.575012 20.972003,20.575012z M20.972003,19.072021C19.649005,19.072021 18.578004,20.144043 18.578004,21.466003 18.578004,22.789001 19.649005,23.860046 20.972003,23.860046 22.294002,23.860046 23.366,22.789001 23.366,21.466003 23.366,20.144043 22.294002,19.072021 20.972003,19.072021z M20.972003,13.087036C25.599002,13.087036 29.351001,16.838013 29.351001,21.466003 29.351001,26.093994 25.599002,29.845032 20.972003,29.845032 16.344003,29.845032 12.593003,26.093994 12.593003,21.466003 12.593003,16.838013 16.344003,13.087036 20.972003,13.087036z M20.972003,0.99700928L20.667003,12.432007C15.819002,12.595032 11.922998,16.579041 11.922998,21.466003 11.922998,23.95105 12.930001,26.205017 14.557,27.842041L6.2890021,32 5.5709998,2.5540161z M15.641001,0L20.190006,0.55804443 4.7879984,2.1140137 5.5070006,31.561035 0.9580002,29.166016 0,1.4360352z" />
  </g>
</svg>

