<?xml version="1.0" encoding="utf-8"?>
<svg xmlns="http://www.w3.org/2000/svg" height="16" width="16" viewBox="0 0 16 16">
  <g>
    <path id="path1" transform="rotate(0,8,8) translate(0.254750728607178,0) scale(0.5,0.5)  " fill="#656565" d="M4.0500023,22.614998L4.0500023,25.118 7.3729998,25.118 7.3729998,22.614998z M22.759,17.995998L22.759,19.301998C21.289998,19.59 20.436994,20.538998 20.436994,21.747997 20.436994,23.080997 21.440992,23.768997 22.910993,24.263 23.927991,24.606998 24.367994,24.937 24.367994,25.458 24.367994,26.007999 23.831998,26.310997 23.048993,26.310997 22.154996,26.310997 21.344999,26.022999 20.767995,25.706997L20.354993,27.313999C20.876996,27.615997,21.770993,27.863998,22.691999,27.904999L22.691999,29.209999 24.037992,29.209999 24.037992,27.808998C25.619001,27.534 26.483991,26.488998 26.483991,25.266998 26.483991,24.029999 25.824002,23.273998 24.188993,22.696999 23.020002,22.257 22.539991,21.968998 22.539991,21.514999 22.539991,21.128998 22.828992,20.744999 23.72099,20.744999 24.710996,20.744999 25.341993,21.060997 25.701001,21.210999L26.097989,19.659C25.645993,19.439999,25.02699,19.246998,24.106992,19.205997L24.106992,17.995998z M23.419004,16.041C27.594999,16.041 30.980998,19.426998 30.980998,23.603001 30.980998,27.778999 27.594999,31.164997 23.419004,31.164997 19.241994,31.164997 15.857001,27.778999 15.857001,23.603001 15.857001,19.426998 19.241994,16.041 23.419004,16.041z M4.0500023,15.784L4.0500023,18.286999 7.3729998,18.286999 7.3729998,15.784z M4.0500023,9.185997L4.0500023,11.688999 7.3729998,11.688999 7.3729998,9.185997z M9.2819969,9.1559982L9.2819969,11.657997 19.368993,11.657997 19.368993,9.1559982z M17.849996,0.096000671L23.419004,7.8219986 16.392995,3.4899979z M0,0L16.367994,0 14.411001,4.4580002 23.341993,9.4899979 23.341993,14.792999C21.910993,14.806,20.562993,15.162998,19.37,15.782997L19.37,15.753998 9.2819969,15.753998 9.2819969,18.257 16.428998,18.257C15.484999,19.487,14.856001,20.968998,14.668997,22.585999L9.2819969,22.585999 9.2819969,25.089001 14.740996,25.089001C15.298994,28.354,17.650998,31.011997,20.748998,32L0,32z" />
  </g>
</svg>

